<svg xmlns="http://www.w3.org/2000/svg" viewBox="0 0 512 640" x="0px" y="0px"><path d="M352,472V272H336V472a8.00917,8.00917,0,0,1-8,8H40a8.00917,8.00917,0,0,1-8-8V40a8.00917,8.00917,0,0,1,8-8H328a8.00917,8.00917,0,0,1,8,8V80h16V40a24.0275,24.0275,0,0,0-24-24H40A24.0275,24.0275,0,0,0,16,40V472a24.0275,24.0275,0,0,0,24,24H328A24.0275,24.0275,0,0,0,352,472Z"/><circle cx="56" cy="56" r="8"/><circle cx="80" cy="56" r="8"/><circle cx="104" cy="56" r="8"/><path d="M488,96H72a8.00008,8.00008,0,0,0-8,8V248a8.00008,8.00008,0,0,0,8,8H488a8.00008,8.00008,0,0,0,8-8V104A8.00008,8.00008,0,0,0,488,96Zm-8,144H80V112H480Z"/><path d="M408,208a39.75963,39.75963,0,0,0,22.04205-6.644l23.21283,23.21338,11.31348-11.31446-23.21228-23.21264A39.98527,39.98527,0,1,0,408,208Zm0-64a24,24,0,1,1-24,24A24.0275,24.0275,0,0,1,408,144Z"/><rect x="232" y="144" width="16" height="72"/><rect x="104" y="200" width="16" height="16"/><rect x="136" y="200" width="16" height="16"/><rect x="168" y="200" width="16" height="16"/><rect x="200" y="200" width="16" height="16"/><rect x="72" y="296" width="40" height="16"/><rect x="128" y="296" width="40" height="16"/><rect x="184" y="296" width="72" height="16"/><rect x="72" y="336" width="24" height="16"/><rect x="112" y="336" width="104" height="16"/><rect x="72" y="416" width="24" height="16"/><rect x="112" y="416" width="104" height="16"/><rect x="232" y="336" width="56" height="16"/><rect x="72" y="376" width="48" height="16"/><rect x="136" y="376" width="80" height="16"/><text x="0" y="527" fill="#000000" font-size="5px" font-weight="bold" font-family="'Helvetica Neue', Helvetica, Arial-Unicode, Arial, Sans-serif">Created by ArmOkay</text><text x="0" y="532" fill="#000000" font-size="5px" font-weight="bold" font-family="'Helvetica Neue', Helvetica, Arial-Unicode, Arial, Sans-serif">from the Noun Project</text></svg>