<svg xmlns="http://www.w3.org/2000/svg" xmlns:xlink="http://www.w3.org/1999/xlink" version="1.1" x="0px" y="0px" viewBox="0 0 64 80" style="enable-background:new 0 0 64 64;" xml:space="preserve"><g><g><polygon points="51,63 1,63 1,13 32,13 32,15 3,15 3,61 49,61 49,34.6 51,34.6   "/></g><g><polygon points="45,57 7,57 7,19 32,19 32,21 9,21 9,55 43,55 43,34.6 45,34.6   "/></g><g><rect x="8" y="25" width="24" height="2"/></g><g><rect x="13" y="31" width="25.636" height="2"/></g><g><rect x="8" y="31" width="3" height="2"/></g><g><rect x="8" y="37" width="36" height="2"/></g><g><rect x="8" y="43" width="36" height="2"/></g><g><rect x="41" y="49" width="3" height="2"/></g><g><rect x="8" y="49" width="31" height="2"/></g><g><path d="M47,37.104L37.348,32.6C33.492,30.8,31,26.887,31,22.631V1h32v21.631c0,4.256-2.492,8.168-6.348,9.968L47,37.104z     M38.194,30.787L47,34.896l8.806-4.109C58.961,29.314,61,26.113,61,22.631V3H33v19.631C33,26.113,35.039,29.314,38.194,30.787    L38.194,30.787z"/></g><g><path d="M47,33.139l-7.831-4.271C36.598,27.465,35,24.774,35,21.845V5h24v16.845c0,2.929-1.598,5.62-4.169,7.023L47,33.139z M37,7    v14.845c0,2.197,1.198,4.215,3.127,5.267L47,30.861l6.873-3.749C55.802,26.06,57,24.042,57,21.845V7H37z"/></g><g><rect x="43" y="13" width="2" height="14"/></g><g><rect x="49" y="13" width="2" height="14"/></g><g><polygon points="52.36,15.768 47,11.302 41.64,15.768 40.36,14.232 47,8.698 53.64,14.232   "/></g></g><text x="0" y="79" fill="#000000" font-size="5px" font-weight="bold" font-family="'Helvetica Neue', Helvetica, Arial-Unicode, Arial, Sans-serif">Created by Eucalyp</text><text x="0" y="84" fill="#000000" font-size="5px" font-weight="bold" font-family="'Helvetica Neue', Helvetica, Arial-Unicode, Arial, Sans-serif">from the Noun Project</text></svg>