<svg xmlns="http://www.w3.org/2000/svg" xmlns:xlink="http://www.w3.org/1999/xlink" version="1.1" x="0px" y="0px" viewBox="0 0 96.001 120" enable-background="new 0 0 96.001 96" xml:space="preserve"><path d="M88.678,63.932c0-9.397-22.715-14.017-27.092-14.819c0.904-0.774,1.75-1.615,2.512-2.531  c6.248-2.155,11.479-6.229,11.773-6.462c0.31-0.245,0.377-0.687,0.154-1.012c-0.223-0.326-0.66-0.424-0.998-0.224  c-2.56,1.5-5.215,2.452-7.926,2.855c1.166-2.604,1.828-5.479,1.828-8.511c0-11.542-9.392-20.933-20.936-20.933  c-1.975,0-3.878,0.293-5.69,0.807L34.169,0.112L21.516,8.037l8.797,14.049c-2.042,3.231-3.242,7.045-3.242,11.142  c0,3.032,0.662,5.907,1.827,8.511c-2.708-0.404-5.362-1.355-7.921-2.855c-0.339-0.2-0.776-0.102-0.998,0.224  c-0.223,0.325-0.155,0.768,0.154,1.012c0.295,0.233,5.521,4.304,11.765,6.46c0.762,0.917,1.607,1.759,2.513,2.534  c-4.381,0.803-27.088,5.422-27.088,14.818v31.674h81.355V63.932z M27.523,43.025c0.721,0.147,1.445,0.257,2.174,0.33  c0.6,0.061,1.204,0.081,1.809,0.091c0.121,0.002,0.241,0.018,0.363,0.018c0,0,0.001,0,0.002,0c8.196,0,14.353-4.535,16.123-5.995  c1.772,1.46,7.935,5.996,16.137,5.995c0.121,0,0.241-0.016,0.361-0.018c0.605-0.01,1.209-0.031,1.81-0.091  c0.73-0.073,1.457-0.183,2.179-0.331c-0.875,0.458-1.811,0.906-2.782,1.322c-0.812,0.347-1.648,0.667-2.501,0.949  c-2.004,0.662-4.089,1.103-6.106,1.103c-3.575,0-6.435-1.391-8.497-4.133c-0.142-0.188-0.364-0.299-0.6-0.299  c-0.236,0-0.458,0.111-0.6,0.3c-2.06,2.742-4.915,4.132-8.486,4.132c-2.019,0-4.104-0.442-6.109-1.104  c-0.853-0.282-1.689-0.603-2.5-0.95C29.33,43.93,28.396,43.482,27.523,43.025z M23.582,8.512l10.112-6.333l7.142,11.405  c-3.857,1.412-7.179,3.92-9.596,7.157L23.582,8.512z M28.57,33.228c0-10.715,8.714-19.433,19.424-19.433  c10.717,0,19.436,8.717,19.436,19.433c0,3.127-0.761,6.075-2.08,8.694c-0.405,0.025-0.812,0.042-1.219,0.042  c-8.966,0-15.563-5.976-15.628-6.036c-0.287-0.265-0.73-0.265-1.018,0c-0.065,0.061-6.654,6.036-15.614,6.036  c-0.001,0-0.002,0-0.002,0c-0.408,0-0.814-0.018-1.22-0.042C29.331,39.303,28.57,36.355,28.57,33.228z M38.907,47.899  C38.908,47.899,38.908,47.899,38.907,47.899c3.736,0,6.788-1.341,9.088-3.989c2.303,2.648,5.357,3.989,9.096,3.989  c1.384,0,2.784-0.199,4.166-0.51c-3.478,3.255-8.135,5.266-13.263,5.266c-5.126,0-9.781-2.011-13.256-5.267  C36.121,47.7,37.522,47.899,38.907,47.899z M47.994,54.155c4.202,0,8.111-1.256,11.395-3.395L47.994,73.018L36.609,50.762  C39.89,52.9,43.796,54.155,47.994,54.155z M87.178,94.106H8.822V63.932c0-7.227,18.268-12,26-13.371l13.172,25.75l13.182-25.75  c7.733,1.37,26.002,6.142,26.002,13.371V94.106z"/><path d="M39.125,35.083c2.473,0,4.484-2.012,4.484-4.484s-2.012-4.484-4.484-4.484s-4.484,2.012-4.484,4.484  S36.652,35.083,39.125,35.083z M39.125,27.614c1.646,0,2.984,1.339,2.984,2.984s-1.339,2.984-2.984,2.984s-2.984-1.339-2.984-2.984  S37.479,27.614,39.125,27.614z"/><path d="M55.689,37.51c3.812,0,6.912-3.1,6.912-6.911s-3.101-6.912-6.912-6.912c-3.811,0-6.91,3.101-6.91,6.912  S51.879,37.51,55.689,37.51z M55.689,25.187c2.984,0,5.412,2.428,5.412,5.412s-2.428,5.411-5.412,5.411  c-2.983,0-5.41-2.427-5.41-5.411S52.706,25.187,55.689,25.187z"/><path d="M71.139,57.639c-7.728,0-14.015,6.287-14.015,14.016v0.319l0.23,0.222c0.1,0.095,2.456,2.331,4.938,2.331  c1.407,0,2.141-0.704,2.73-1.271c0.515-0.494,0.888-0.852,1.69-0.852c0.804,0,1.176,0.357,1.691,0.852  c0.476,0.456,1.051,0.996,1.99,1.19v13.145c0,1.144-0.93,2.074-2.073,2.074h-0.854c-1.144,0-2.074-0.931-2.074-2.074h-1.5  c0,1.971,1.604,3.574,3.574,3.574h0.854c1.971,0,3.573-1.604,3.573-3.574V74.444c0.929-0.198,1.499-0.734,1.971-1.188  c0.515-0.494,0.888-0.852,1.69-0.852c0.805,0,1.178,0.357,1.693,0.853c0.59,0.565,1.323,1.27,2.73,1.27  c2.483,0,4.844-2.235,4.943-2.331l0.23-0.221v-0.32C85.154,63.926,78.867,57.639,71.139,57.639z M79.98,73.027  c-0.804,0-1.176-0.357-1.691-0.852c-0.59-0.566-1.324-1.271-2.732-1.271c-1.407,0-2.141,0.704-2.729,1.271  c-0.515,0.494-0.888,0.852-1.69,0.852c-0.805,0-1.177-0.357-1.692-0.853c-0.59-0.565-1.323-1.27-2.73-1.27  c-1.406,0-2.14,0.704-2.729,1.27c-0.516,0.495-0.888,0.853-1.691,0.853c-1.498,0-3.079-1.209-3.665-1.705  c0.178-6.748,5.722-12.183,12.511-12.183c6.791,0,12.336,5.437,12.512,12.186C82.927,71.942,81.368,73.027,79.98,73.027z"/><path d="M71.139,61.313c-5.701,0-10.34,4.64-10.34,10.342h1.5c0-4.622,3.566-8.421,8.09-8.804v8.84h1.5v-8.84  c4.524,0.383,8.091,4.182,8.091,8.804h1.5C81.479,65.953,76.841,61.313,71.139,61.313z"/><text x="0" y="111" fill="#000000" font-size="5px" font-weight="bold" font-family="'Helvetica Neue', Helvetica, Arial-Unicode, Arial, Sans-serif">Created by faisalovers</text><text x="0" y="116" fill="#000000" font-size="5px" font-weight="bold" font-family="'Helvetica Neue', Helvetica, Arial-Unicode, Arial, Sans-serif">from the Noun Project</text></svg>